<?xml version="1.0" encoding="UTF-8" standalone="no"?>
<svg
   viewBox="0 0 1024 1024"
   version="1.1"
   id="svg7"
   sodipodi:docname="fb.svg"
   width="1024"
   height="1024"
   inkscape:version="1.1.2 (0a00cf5339, 2022-02-04)"
   xmlns:inkscape="http://www.inkscape.org/namespaces/inkscape"
   xmlns:sodipodi="http://sodipodi.sourceforge.net/DTD/sodipodi-0.dtd"
   xmlns="http://www.w3.org/2000/svg"
   xmlns:svg="http://www.w3.org/2000/svg">
  <defs
     id="defs11" />
  <sodipodi:namedview
     id="namedview9"
     pagecolor="#ffffff"
     bordercolor="#666666"
     borderopacity="1.0"
     inkscape:pageshadow="2"
     inkscape:pageopacity="0.0"
     inkscape:pagecheckerboard="0"
     showgrid="false"
     inkscape:zoom="0.368346"
     inkscape:cx="92.304517"
     inkscape:cy="164.24774"
     inkscape:window-width="1920"
     inkscape:window-height="1031"
     inkscape:window-x="0"
     inkscape:window-y="25"
     inkscape:window-maximized="1"
     inkscape:current-layer="svg7" />
  <g
     id="Layer_2"
     data-name="Layer 2"
     transform="matrix(35.189003,0,0,35.189003,-0.64029593,3.3605283)">
    <g
       id="Camada_1"
       data-name="Camada 1">
      <g
         id="_2SV5lf"
         data-name="2SV5lf">
        <path
           d="m 16.52,23.69 c 0,-1.68 0,-3.36 0,-5 0,-0.21 0.06,-0.25 0.26,-0.25 h 3.3 c 0.18,0 0.23,-0.07 0.26,-0.23 0.17,-1.13 0.34,-2.27 0.52,-3.4 0,-0.17 0,-0.2 -0.18,-0.2 h -3.89 c -0.23,0 -0.28,-0.07 -0.27,-0.28 0,-0.84 0,-1.67 0,-2.5 A 3.65,3.65 0 0 1 17,10.33 1.65,1.65 0 0 1 18.46,9.5 h 2.25 c 0.15,0 0.21,0 0.21,-0.2 0,-1 0,-2 0,-3 0,-0.1 0,-0.19 -0.13,-0.2 A 14.11,14.11 0 0 0 16.07,6.15 4.45,4.45 0 0 0 12.65,9.7 9.23,9.23 0 0 0 12.39,12 c 0,0.78 0,1.55 0,2.33 0,0.17 0,0.22 -0.21,0.22 H 9 c -0.16,0 -0.21,0 -0.21,0.21 0,1.14 0,2.27 0,3.4 0,0.17 0,0.22 0.21,0.22 h 3.16 c 0.2,0 0.24,0.05 0.24,0.24 V 28.7 c 0,0.19 0,0.22 -0.23,0.19 a 14.55,14.55 0 1 1 9.55,-1.68 14.75,14.75 0 0 1 -4.9,1.71 c -0.21,0 -0.3,0 -0.29,-0.24 0,-1.68 -0.01,-3.33 -0.01,-4.99 z"
           id="path2" />
      </g>
    </g>
  </g>
</svg>
