<?xml version="1.0" encoding="UTF-8" standalone="no"?>
<svg
   viewBox="0 0 1024 1024"
   version="1.1"
   id="svg17"
   sodipodi:docname="insta.svg"
   width="1024"
   height="1024"
   inkscape:version="1.1.2 (0a00cf5339, 2022-02-04)"
   xmlns:inkscape="http://www.inkscape.org/namespaces/inkscape"
   xmlns:sodipodi="http://sodipodi.sourceforge.net/DTD/sodipodi-0.dtd"
   xmlns="http://www.w3.org/2000/svg"
   xmlns:svg="http://www.w3.org/2000/svg">
  <sodipodi:namedview
     id="namedview19"
     pagecolor="#ffffff"
     bordercolor="#666666"
     borderopacity="1.0"
     inkscape:pageshadow="2"
     inkscape:pageopacity="0.0"
     inkscape:pagecheckerboard="0"
     showgrid="false"
     inkscape:zoom="0.51966253"
     inkscape:cx="136.62713"
     inkscape:cy="416.61653"
     inkscape:window-width="1920"
     inkscape:window-height="1031"
     inkscape:window-x="0"
     inkscape:window-y="25"
     inkscape:window-maximized="1"
     inkscape:current-layer="svg17" />
  <defs
     id="defs4">
    <style
       id="style2">.cls-1{fill:#fff;}</style>
  </defs>
  <path
     id="path6"
     style="stroke-width:35.309"
     d="M 310.0293 0.0234375 A 332.6109 332.6109 0 0 0 256.71289 4.6132812 A 311.77858 311.77858 0 0 0 0.015625 308.97656 L 0.015625 714.67773 A 311.77858 311.77858 0 0 0 200.92383 1003.8594 A 330.84545 330.84545 0 0 0 317.79688 1023.9844 L 510.9375 1023.9844 L 706.19727 1023.9844 A 350.97159 350.97159 0 0 0 776.81445 1016.9219 A 310.01313 310.01313 0 0 0 1023.9785 713.26562 L 1023.9785 308.62305 A 284.59064 284.59064 0 0 0 988.66797 169.50586 A 301.89206 301.89206 0 0 0 713.61133 0.0234375 L 310.0293 0.0234375 z M 814.94922 128.54883 A 62.850043 62.850043 0 0 1 877.44531 190.69141 A 62.850043 62.850043 0 0 1 814.94922 253.54102 A 62.496955 62.496955 0 0 1 814.94922 128.54883 z M 513.41016 216.4668 A 299.06734 299.06734 0 0 1 812.12305 514.82812 A 298.71425 298.71425 0 1 1 513.41016 216.4668 z " />
  <path
     d="M 674.41858,512.00385 A 162.77455,162.77455 0 1 1 512.35021,349.58239 162.77455,162.77455 0 0 1 674.41858,512.00385 Z"
     id="path12"
     style="stroke-width:35.309" />
</svg>
