<?xml version="1.0" encoding="UTF-8" standalone="no"?>
<svg
   viewBox="0 0 1024 1024"
   version="1.1"
   id="svg6"
   sodipodi:docname="linkedin.svg"
   width="1024"
   height="1024"
   inkscape:version="1.1.2 (0a00cf5339, 2022-02-04)"
   xmlns:inkscape="http://www.inkscape.org/namespaces/inkscape"
   xmlns:sodipodi="http://sodipodi.sourceforge.net/DTD/sodipodi-0.dtd"
   xmlns="http://www.w3.org/2000/svg"
   xmlns:svg="http://www.w3.org/2000/svg">
  <defs
     id="defs10" />
  <sodipodi:namedview
     id="namedview8"
     pagecolor="#ffffff"
     bordercolor="#666666"
     borderopacity="1.0"
     inkscape:pageshadow="2"
     inkscape:pageopacity="0.0"
     inkscape:pagecheckerboard="0"
     showgrid="false"
     inkscape:zoom="2.0573671"
     inkscape:cx="11.665395"
     inkscape:cy="-33.294982"
     inkscape:window-width="1920"
     inkscape:window-height="1031"
     inkscape:window-x="0"
     inkscape:window-y="25"
     inkscape:window-maximized="1"
     inkscape:current-layer="svg6" />
  <g
     id="Layer_2"
     data-name="Layer 2"
     transform="matrix(34.948773,0,0,34.948773,-0.00715769,0.00107973)">
    <g
       id="Camada_1"
       data-name="Camada 1">
      <path
         d="M 14.64,0 A 14.65,14.65 0 1 0 29.3,14.57 14.63,14.63 0 0 0 14.64,0 Z M 7.41,7.67 a 1.55,1.55 0 0 1 1.37,-1 H 9.14 A 1.6,1.6 0 0 1 10.76,8.83 1.49,1.49 0 0 1 9.93,9.69 2.07,2.07 0 0 1 7.82,9.43 1.54,1.54 0 0 1 7.41,7.67 Z m 3.34,13.09 c -1.07,0 -2.13,0 -3.19,0 -0.17,0 -0.25,0 -0.24,-0.23 v -9.32 c 0,-0.18 0,-0.22 0.22,-0.22 h 3.24 c 0.18,0 0.21,0 0.21,0.22 v 9.3 c 0.01,0.2 -0.05,0.25 -0.24,0.25 z m 12.2,0 c -1,0 -2,0 -3,0 -0.17,0 -0.21,-0.05 -0.21,-0.22 v -5.09 a 2.67,2.67 0 0 0 -0.15,-0.93 1.32,1.32 0 0 0 -1.11,-0.91 1.44,1.44 0 0 0 -1.3,0.82 2.42,2.42 0 0 0 -0.21,1 c 0,1.69 0,3.37 0,5.06 0,0.19 0,0.25 -0.24,0.25 -1,0 -2.06,0 -3.08,0 -0.19,0 -0.25,0 -0.25,-0.24 q 0,-4.65 0,-9.31 c 0,-0.19 0.06,-0.22 0.24,-0.22 h 3.1 c 0.18,0 0.24,0 0.23,0.23 -0.01,0.23 0,0.69 0,1.08 a 3.59,3.59 0 0 1 3.71,-1.23 2.78,2.78 0 0 1 2.18,2.14 6.54,6.54 0 0 1 0.31,2.11 c 0,1.73 0,3.46 0,5.2 0.03,0.22 -0.03,0.26 -0.17,0.26 z"
         id="path2" />
    </g>
  </g>
</svg>
