<?xml version="1.0" encoding="UTF-8" standalone="no"?>
<svg
   viewBox="0 0 1024 1024"
   version="1.1"
   id="svg6"
   sodipodi:docname="ticktok.svg"
   width="1024"
   height="1024"
   inkscape:version="1.1.2 (0a00cf5339, 2022-02-04)"
   xmlns:inkscape="http://www.inkscape.org/namespaces/inkscape"
   xmlns:sodipodi="http://sodipodi.sourceforge.net/DTD/sodipodi-0.dtd"
   xmlns="http://www.w3.org/2000/svg"
   xmlns:svg="http://www.w3.org/2000/svg">
  <defs
     id="defs10" />
  <sodipodi:namedview
     id="namedview8"
     pagecolor="#ffffff"
     bordercolor="#666666"
     borderopacity="1.0"
     inkscape:pageshadow="2"
     inkscape:pageopacity="0.0"
     inkscape:pagecheckerboard="0"
     showgrid="false"
     inkscape:zoom="0.25717088"
     inkscape:cx="412.1773"
     inkscape:cy="200.25595"
     inkscape:window-width="1920"
     inkscape:window-height="1031"
     inkscape:window-x="0"
     inkscape:window-y="25"
     inkscape:window-maximized="1"
     inkscape:current-layer="svg6" />
  <g
     id="Layer_2"
     data-name="Layer 2"
     transform="matrix(34.948773,0,0,34.948773,-0.00715769,0.00107973)">
    <g
       id="Camada_1"
       data-name="Camada 1">
      <path
         d="M 14.64,0 A 14.65,14.65 0 1 0 29.3,14.57 14.63,14.63 0 0 0 14.64,0 Z m 7.07,13 a 4.56,4.56 0 0 1 -3.86,-1.89 l -0.08,-0.09 h -0.05 v 0.24 c 0,2.18 0,4.37 0,6.55 A 5.08,5.08 0 0 1 16,21.9 a 5,5 0 0 1 -5.16,1 5,5 0 0 1 -3.42,-3.9 5.17,5.17 0 0 1 4.5,-6.18 3.46,3.46 0 0 1 0.79,0 c 0.1,0 0.13,0 0.13,0.14 q 0,1.14 0,2.28 c 0,0.14 -0.07,0.14 -0.17,0.13 a 2.62,2.62 0 0 0 -2.76,2.16 2.65,2.65 0 0 0 2.64,3.14 2.75,2.75 0 0 0 2.67,-2.09 2.62,2.62 0 0 0 0.07,-0.62 c 0,-3.87 0,-7.74 0,-11.61 0,-0.21 0,-0.27 0.26,-0.27 0.67,0 1.34,0 2,0 0.13,0 0.19,0 0.2,0.18 a 4.56,4.56 0 0 0 3.9,3.86 c 0.29,0 0.29,0 0.29,0.33 0,0.77 0,1.54 0,2.31 C 22,13 21.9,13 21.71,13 Z"
         id="path2" />
    </g>
  </g>
</svg>
