<svg xmlns="http://www.w3.org/2000/svg" xmlns:xlink="http://www.w3.org/1999/xlink" viewBox="0 0 159.99 159.99"><defs><style>.cls-1{fill:none;}.cls-2{clip-path:url(#clip-path);}.cls-3{fill:url(#linear-gradient);}.cls-4{fill:#005a71;}.cls-5{fill:#fff;}</style><clipPath id="clip-path"><path id="SVGID" class="cls-1" d="M40,80A40,40,0,1,0,80,40,40,40,0,0,0,40,80"/></clipPath><linearGradient id="linear-gradient" x1="-429.45" y1="3317.58" x2="-428.45" y2="3317.58" gradientTransform="matrix(76.73, 0, 0, -76.73, 32988.45, 254631.69)" gradientUnits="userSpaceOnUse"><stop offset="0" stop-color="#005a71"/><stop offset="0" stop-color="#005a71"/><stop offset="1" stop-color="#00a1ba"/></linearGradient></defs><title>Asset 4</title><g id="Layer_2" data-name="Layer 2"><g id="Layer_1-2" data-name="Layer 1"><g class="cls-2"><rect class="cls-3" x="23.43" y="23.43" width="113.13" height="113.13" transform="translate(-33.13 79.16) rotate(-44.58)"/></g><path class="cls-4" d="M102.94,88.94a7.13,7.13,0,0,0-1-1.28v-5.3h-.78v-6h1.67a7.88,7.88,0,0,0,.07-1.09,9.92,9.92,0,0,0-.07-1.06A21.3,21.3,0,0,0,82.63,54c-.35,0-.72,0-1.06,0s-5.41,0-5.75,0A21.37,21.37,0,0,0,55.53,74.21c0,.38,0,.73,0,1.07s0,.71,0,1.09h1.7v6l-.71,0v4a7.72,7.72,0,0,0-3.37,3.27l0,0h0a6.9,6.9,0,0,0-.65,3v5.13a7.23,7.23,0,0,0,7.23,7.22h1.6l1.57,1.1h.81A3.25,3.25,0,0,0,67,102.77V87.52a3.26,3.26,0,0,0-3.26-3.3h-.82l-1.56,1.14s-.41,0-1,0v-3h-.59v-6h2.08c0-.36,0-.72,0-1.08s0-.7,0-1.07a15.11,15.11,0,0,1,14-14l5.75-.06c.34,0,.71.07,1.06.06a15.09,15.09,0,0,1,14,14,7.8,7.8,0,0,1,.06,1.06,8,8,0,0,1-.06,1.1h2.08v6h-.52v3.29a10.27,10.27,0,0,0-3.07-.29l-1.53-1.14h-.86a3.28,3.28,0,0,0-3.27,3.31v15.24a3.3,3.3,0,0,0,3.28,3.28h.86l1.53-1.11h1.6a7.23,7.23,0,0,0,7.2-7.24V92.6a7.35,7.35,0,0,0-1-3.66"/><path class="cls-4" d="M69.83,89.62A7,7,0,0,1,70,99.45a3.08,3.08,0,0,1-.33.3l1.18,1.18.32-.3A8.58,8.58,0,0,0,71,88.49Z"/><path class="cls-4" d="M67.94,91.5a4.4,4.4,0,0,1,.11,6.24l-.2.18.75.75.2-.19a5.46,5.46,0,0,0-.13-7.69Z"/><path class="cls-4" d="M86.07,99.81A7,7,0,0,1,85.91,90a2.27,2.27,0,0,1,.32-.3L85.05,88.5c-.11.1-.22.19-.32.3a8.59,8.59,0,0,0,.21,12.14Z"/><path class="cls-4" d="M88,97.93a4.41,4.41,0,0,1-.11-6.24l.21-.18-.75-.75L87.1,91a5.45,5.45,0,0,0,.14,7.69Z"/><path class="cls-5" d="M104.74,87.14a7.13,7.13,0,0,0-1-1.28V80.57H103v-6h1.67c0-.36.06-.72.07-1.09a9.57,9.57,0,0,0-.07-1A21.3,21.3,0,0,0,84.42,52.15h-6.8a21.37,21.37,0,0,0-20.3,20.26c0,.38,0,.73,0,1.07s0,.71,0,1.09H59v6h-.71v4A7.75,7.75,0,0,0,55,87.79l0,0h0a6.82,6.82,0,0,0-.65,3v5.13a7.24,7.24,0,0,0,7.22,7.23h1.6l1.58,1.09h.81A3.25,3.25,0,0,0,68.75,101V85.72a3.26,3.26,0,0,0-3.26-3.3h-.82L63.1,83.56s-.41,0-1,0v-3H61.5v-6h2.09c0-.36,0-.72,0-1.08s0-.7,0-1.06a15.09,15.09,0,0,1,14-14l5.74-.06c.34,0,.71.07,1.06.06a15.07,15.07,0,0,1,14,14,7.8,7.8,0,0,1,.06,1.06,8,8,0,0,1-.06,1.1h2.08v6H100v3.28a9.25,9.25,0,0,0-1.91-.29,9.38,9.38,0,0,0-1.17,0l-1.52-1.14h-.86a3.28,3.28,0,0,0-3.27,3.31V101a3.29,3.29,0,0,0,3.28,3.27h.86l1.52-1.1h1.61a7.2,7.2,0,0,0,7.19-7.24V90.8a7.37,7.37,0,0,0-1-3.66"/><path class="cls-5" d="M71.63,87.82a7,7,0,0,1,.17,9.83,3.08,3.08,0,0,1-.33.3l1.18,1.18.32-.3a8.58,8.58,0,0,0-.21-12.14Z"/><path class="cls-5" d="M69.75,89.71a4.4,4.4,0,0,1,.1,6.23l-.21.18.75.75.21-.19A5.45,5.45,0,0,0,70.46,89Z"/><path class="cls-5" d="M87.87,98a7,7,0,0,1-.17-9.83,3.08,3.08,0,0,1,.33-.3L86.85,86.7l-.32.3a8.58,8.58,0,0,0,.21,12.14Z"/><path class="cls-5" d="M89.76,96.13a4.4,4.4,0,0,1-.11-6.24l.2-.18L89.1,89l-.2.19A5.46,5.46,0,0,0,89,96.84Z"/></g></g></svg>