<svg xmlns="http://www.w3.org/2000/svg" xmlns:xlink="http://www.w3.org/1999/xlink" viewBox="0 0 159.31 159.31"><defs><style>.cls-1{fill:none;}.cls-2{clip-path:url(#clip-path);}.cls-3{fill:url(#linear-gradient);}.cls-4{fill:#004b43;}.cls-5{fill:#fff;}.cls-6{fill:#00a078;}</style><clipPath id="clip-path"><path class="cls-1" d="M39.66,79.66a40,40,0,1,0,40-40,40,40,0,0,0-40,40"/></clipPath><linearGradient id="linear-gradient" x1="-512.54" y1="3212.5" x2="-511.54" y2="3212.5" gradientTransform="matrix(78.03, 0, 0, -78.03, 40033, 250752.41)" gradientUnits="userSpaceOnUse"><stop offset="0" stop-color="#005c2b"/><stop offset="0" stop-color="#005c2b"/><stop offset="0.89" stop-color="#00a078"/><stop offset="1" stop-color="#00a078"/></linearGradient></defs><title>Asset 1</title><g id="Layer_2" data-name="Layer 2"><g id="Layer_1-2" data-name="Layer 1"><g class="cls-2"><rect class="cls-3" x="23.21" y="23.21" width="112.89" height="112.89" transform="translate(-32.75 72.27) rotate(-41.24)"/></g><path class="cls-4" d="M61.4,102.88H94.32V57.7H61.4Zm4.45-41.6h24a.4.4,0,1,1,0,.8h-24a.4.4,0,1,1,0-.8m0,2.79h24a.41.41,0,0,1,0,.81h-24a.41.41,0,0,1,0-.81m0,2.8h24a.4.4,0,0,1,0,.8h-24a.4.4,0,1,1,0-.8m0,2.79h24a.4.4,0,0,1,0,.8h-24a.4.4,0,0,1,0-.8m0,2.79h24a.4.4,0,0,1,0,.8h-24a.4.4,0,1,1,0-.8m0,2.79h24a.4.4,0,0,1,0,.8h-24a.4.4,0,1,1,0-.8m0,2.8h24a.4.4,0,0,1,0,.8h-24a.4.4,0,1,1,0-.8m0,2.79h24a.4.4,0,0,1,0,.8h-24a.4.4,0,0,1,0-.8m0,2.79h24a.4.4,0,0,1,0,.8h-24a.4.4,0,1,1,0-.8m0,2.79h24a.4.4,0,0,1,0,.8h-24a.4.4,0,0,1,0-.8m0,2.79h24a.4.4,0,0,1,.4.41.4.4,0,0,1-.4.39h-24a.39.39,0,0,1-.4-.39.4.4,0,0,1,.4-.41m0,2.8h24a.4.4,0,0,1,0,.8h-24a.4.4,0,0,1,0-.8m0,2.79h24a.4.4,0,0,1,0,.8h-24a.4.4,0,1,1,0-.8m0,2.79h24a.4.4,0,0,1,0,.8h-24a.4.4,0,0,1,0-.8"/><path class="cls-4" d="M94.8,54.49H61a2.93,2.93,0,0,0-3,2.94V105.5a2.93,2.93,0,0,0,3,2.92H94.8a2.92,2.92,0,0,0,2.91-2.92V57.43a2.93,2.93,0,0,0-2.91-2.94M73.32,105.72a.4.4,0,0,1,.4-.4H82a.4.4,0,0,1,0,.8H73.72a.4.4,0,0,1-.4-.4m21-2.84H61.4V57.7H94.32Z"/><path class="cls-4" d="M65.85,62.08h24a.4.4,0,0,0,.4-.4.41.41,0,0,0-.4-.4h-24a.4.4,0,0,0-.4.4.39.39,0,0,0,.4.4"/><path class="cls-4" d="M65.85,64.88h24a.41.41,0,0,0,0-.81h-24a.41.41,0,0,0,0,.81"/><path class="cls-4" d="M65.85,67.67h24a.4.4,0,0,0,0-.8h-24a.4.4,0,1,0,0,.8"/><path class="cls-4" d="M65.85,70.46h24a.4.4,0,0,0,0-.8h-24a.4.4,0,0,0,0,.8"/><path class="cls-4" d="M65.85,73.25h24a.4.4,0,0,0,0-.8h-24a.4.4,0,1,0,0,.8"/><path class="cls-4" d="M65.85,76h24a.4.4,0,0,0,0-.8h-24a.4.4,0,1,0,0,.8"/><path class="cls-4" d="M65.85,78.84h24a.4.4,0,0,0,0-.8h-24a.4.4,0,1,0,0,.8"/><path class="cls-4" d="M65.85,81.63h24a.4.4,0,0,0,0-.8h-24a.4.4,0,0,0,0,.8"/><path class="cls-4" d="M65.85,84.42h24a.4.4,0,0,0,0-.8h-24a.4.4,0,1,0,0,.8"/><path class="cls-4" d="M65.85,87.21h24a.4.4,0,0,0,0-.8h-24a.4.4,0,0,0,0,.8"/><path class="cls-4" d="M65.85,90h24a.4.4,0,0,0,.4-.39.4.4,0,0,0-.4-.41h-24a.4.4,0,0,0-.4.41.39.39,0,0,0,.4.39"/><path class="cls-4" d="M65.85,92.8h24a.4.4,0,0,0,0-.8h-24a.4.4,0,0,0,0,.8"/><path class="cls-4" d="M65.85,95.59h24a.4.4,0,0,0,0-.8h-24a.4.4,0,1,0,0,.8"/><path class="cls-4" d="M65.85,98.38h24a.4.4,0,0,0,0-.8h-24a.4.4,0,0,0,0,.8"/><path class="cls-4" d="M82,106.12a.4.4,0,0,0,0-.8H73.72a.4.4,0,0,0,0,.8Z"/><rect class="cls-5" x="61.82" y="54.34" width="36.27" height="50.5"/><path class="cls-5" d="M96.59,52.69H62.75a2.93,2.93,0,0,0-3,2.94v48.08a2.94,2.94,0,0,0,3,2.92H96.59a2.93,2.93,0,0,0,2.92-2.92V55.63a2.93,2.93,0,0,0-2.92-2.94m-12.8,51.63H75.52a.4.4,0,0,1,0-.8h8.27a.4.4,0,0,1,0,.8m12.33-3.24H63.2V55.9H96.12Z"/><path class="cls-6" d="M91.66,59.48h-24a.41.41,0,0,0,0,.81h24a.41.41,0,1,0,0-.81"/><path class="cls-6" d="M91.66,62.28h-24a.4.4,0,0,0,0,.8h24a.4.4,0,1,0,0-.8"/><path class="cls-6" d="M91.66,65.07h-24a.4.4,0,0,0,0,.8h24a.4.4,0,1,0,0-.8"/><path class="cls-6" d="M91.66,67.86h-24a.4.4,0,0,0,0,.8h24a.4.4,0,1,0,0-.8"/><path class="cls-6" d="M91.66,70.65h-24a.4.4,0,0,0,0,.8h24a.4.4,0,1,0,0-.8"/><path class="cls-6" d="M91.66,73.45h-24a.4.4,0,0,0-.39.39.4.4,0,0,0,.39.41h24a.4.4,0,1,0,0-.8"/><path class="cls-6" d="M91.66,76.24h-24a.4.4,0,0,0,0,.8h24a.4.4,0,1,0,0-.8"/><path class="cls-6" d="M91.66,79h-24a.4.4,0,0,0,0,.8h24a.4.4,0,1,0,0-.8"/><path class="cls-6" d="M91.66,81.82h-24a.4.4,0,0,0,0,.8h24a.4.4,0,1,0,0-.8"/><path class="cls-6" d="M91.66,84.61h-24a.4.4,0,0,0-.39.41.4.4,0,0,0,.39.39h24a.4.4,0,1,0,0-.8"/><path class="cls-6" d="M91.66,87.41h-24a.4.4,0,0,0-.39.39.4.4,0,0,0,.39.41h24a.4.4,0,1,0,0-.8"/><path class="cls-6" d="M91.66,90.2h-24a.4.4,0,0,0,0,.8h24a.4.4,0,1,0,0-.8"/><path class="cls-6" d="M91.66,93h-24a.4.4,0,0,0,0,.8h24a.4.4,0,1,0,0-.8"/><path class="cls-6" d="M91.66,95.78h-24a.4.4,0,0,0,0,.8h24a.4.4,0,1,0,0-.8"/><path class="cls-6" d="M83.79,104.32H75.52a.4.4,0,0,1,0-.8h8.27a.4.4,0,0,1,0,.8"/></g></g></svg>