<svg xmlns="http://www.w3.org/2000/svg" xmlns:xlink="http://www.w3.org/1999/xlink" viewBox="0 0 159.06 159.06"><defs><style>.cls-1{fill:none;}.cls-2{clip-path:url(#clip-path);}.cls-3{fill:url(#linear-gradient);}.cls-4{fill:#aa1b19;}.cls-5{fill:#fff;}.cls-6{fill:#ff2d1e;}</style><clipPath id="clip-path"><path class="cls-1" d="M39.53,79.53a40,40,0,1,0,40-40,40,40,0,0,0-40,40"/></clipPath><linearGradient id="linear-gradient" x1="-572.98" y1="3298.77" x2="-571.98" y2="3298.77" gradientTransform="matrix(74.1, 0, 0, -74.1, 42490.49, 244526.69)" gradientUnits="userSpaceOnUse"><stop offset="0" stop-color="#aa1b19"/><stop offset="0" stop-color="#aa1b19"/><stop offset="1" stop-color="#ff2d1e"/></linearGradient></defs><title>Asset 3</title><g id="Layer_2" data-name="Layer 2"><g id="Layer_1-2" data-name="Layer 1"><g class="cls-2"><rect class="cls-3" x="23.13" y="23.13" width="112.8" height="112.8" transform="translate(-32.61 88.16) rotate(-49.4)"/></g><path class="cls-4" d="M73.52,63.11H50.64a2,2,0,0,0-2,2V97.58a2,2,0,0,0,2,2H73.52a2,2,0,0,0,2-2V65.09a2,2,0,0,0-2-2"/><path class="cls-4" d="M109.07,86.59a4.44,4.44,0,0,0-.56-.75V82.72h-.46V79.19h1c0-.22,0-.43,0-.64s0-.41,0-.63A12.55,12.55,0,0,0,97.11,66h-4A12.58,12.58,0,0,0,81.16,77.92c0,.22,0,.43,0,.63s0,.42,0,.64h1v3.53h-.42v2.33a4.64,4.64,0,0,0-2,1.92l0,0h0a3.89,3.89,0,0,0-.38,1.74v3A4.25,4.25,0,0,0,83.62,96h.94l.93.65H86a1.92,1.92,0,0,0,1.92-1.92v-9a1.93,1.93,0,0,0-1.92-2h-.49l-.92.68a5.85,5.85,0,0,0-.59,0V82.72h-.35V79.19h1.23c0-.22,0-.43,0-.64s0-.41,0-.63a8.87,8.87,0,0,1,8.25-8.24l3.39,0c.2,0,.41,0,.62,0a8.86,8.86,0,0,1,8.24,8.24,5.06,5.06,0,0,1,0,1.27h1.23v3.53h-.3v1.94a5.17,5.17,0,0,0-1.13-.17,4.35,4.35,0,0,0-.69,0l-.9-.68h-.5a1.93,1.93,0,0,0-1.92,2v9a1.94,1.94,0,0,0,1.93,1.92h.5l.9-.65h1a4.24,4.24,0,0,0,4.23-4.25v-3a4.45,4.45,0,0,0-.57-2.15"/><path class="cls-4" d="M89.58,87a4.1,4.1,0,0,1,.1,5.79c-.06.07-.13.12-.19.18l.69.69.19-.18a5,5,0,0,0-.13-7.14Z"/><path class="cls-4" d="M88.89,87.68l-.42.42a2.59,2.59,0,0,1,.06,3.67l-.12.11.44.44.12-.11a3.21,3.21,0,0,0-.08-4.53"/><path class="cls-4" d="M99,87.21a1.07,1.07,0,0,1,.19-.18l-.69-.7-.19.18a5,5,0,0,0,.12,7.14l.67-.66a4.08,4.08,0,0,1-.1-5.78"/><path class="cls-4" d="M100.31,88.1l-.44-.43-.12.11a3.19,3.19,0,0,0,.08,4.52l.42-.42a2.59,2.59,0,0,1-.06-3.67l.12-.11"/><rect class="cls-5" x="51.81" y="62.43" width="24.51" height="34.12"/><path class="cls-5" d="M75.31,61.31H52.44a2,2,0,0,0-2,2V95.78a2,2,0,0,0,2,2H75.31a2,2,0,0,0,2-2V63.3a2,2,0,0,0-2-2M66.66,96.2H61.07a.27.27,0,0,1,0-.54h5.59a.27.27,0,0,1,0,.54M75,94H52.75V63.48H75Z"/><path class="cls-6" d="M72,65.9H55.75a.27.27,0,1,0,0,.54H72a.27.27,0,0,0,0-.54"/><path class="cls-6" d="M72,67.79H55.75a.27.27,0,1,0,0,.54H72a.27.27,0,1,0,0-.54"/><path class="cls-6" d="M72,69.67H55.75a.28.28,0,0,0-.27.27.27.27,0,0,0,.27.27H72a.27.27,0,0,0,.27-.27.28.28,0,0,0-.27-.27"/><path class="cls-6" d="M72,71.56H55.75a.27.27,0,1,0,0,.54H72a.27.27,0,0,0,0-.54"/><path class="cls-6" d="M72,73.45H55.75a.27.27,0,1,0,0,.54H72a.27.27,0,1,0,0-.54"/><path class="cls-6" d="M72,75.33H55.75a.28.28,0,0,0-.27.27.27.27,0,0,0,.27.27H72a.27.27,0,0,0,.27-.27.28.28,0,0,0-.27-.27"/><path class="cls-6" d="M72,77.22H55.75a.27.27,0,0,0,0,.54H72a.27.27,0,0,0,0-.54"/><path class="cls-6" d="M72,79.11H55.75a.27.27,0,0,0,0,.54H72a.27.27,0,1,0,0-.54"/><path class="cls-6" d="M72,81H55.75a.28.28,0,0,0-.27.27.27.27,0,0,0,.27.27H72a.27.27,0,0,0,.27-.27A.28.28,0,0,0,72,81"/><path class="cls-6" d="M72,82.88H55.75a.27.27,0,1,0,0,.54H72a.27.27,0,1,0,0-.54"/><path class="cls-6" d="M72,84.77H55.75a.27.27,0,1,0,0,.54H72a.27.27,0,1,0,0-.54"/><path class="cls-6" d="M72,86.65H55.75a.28.28,0,0,0-.27.27.27.27,0,0,0,.27.27H72a.27.27,0,0,0,.27-.27.28.28,0,0,0-.27-.27"/><path class="cls-6" d="M72,88.54H55.75a.27.27,0,1,0,0,.54H72a.27.27,0,1,0,0-.54"/><path class="cls-6" d="M72,90.43H55.75a.27.27,0,1,0,0,.54H72a.27.27,0,0,0,0-.54"/><path class="cls-6" d="M66.66,96.2H61.07a.27.27,0,0,1,0-.54h5.59a.27.27,0,0,1,0,.54"/><path class="cls-5" d="M110.87,84.8a4.08,4.08,0,0,0-.57-.76V80.92h-.46V77.4h1c0-.21,0-.42,0-.64s0-.41,0-.62A12.54,12.54,0,0,0,98.91,64.2c-.21,0-.43,0-.63,0s-3.18,0-3.38,0A12.57,12.57,0,0,0,83,76.12c0,.23,0,.43,0,.63s0,.42,0,.65h1v3.52h-.42v2.34a4.53,4.53,0,0,0-2,1.92l0,0h0a4,4,0,0,0-.39,1.74v3a4.27,4.27,0,0,0,4.26,4.26h.94l.93.64h.47a1.92,1.92,0,0,0,1.92-1.93V84A1.92,1.92,0,0,0,87.76,82h-.48l-.92.68a6,6,0,0,0-.6,0V80.92h-.34V77.39h1.22c0-.21,0-.43,0-.64s0-.41,0-.62a8.9,8.9,0,0,1,8.26-8.25l3.38,0c.21,0,.42,0,.63,0a8.88,8.88,0,0,1,8.24,8.24,4.59,4.59,0,0,1,0,.62,4.78,4.78,0,0,1,0,.66h1.23v3.52h-.31v1.94a5.08,5.08,0,0,0-1.13-.17,4.24,4.24,0,0,0-.68,0l-.89-.68h-.51A1.94,1.94,0,0,0,102.93,84v9a1.94,1.94,0,0,0,1.93,1.93h.51l.89-.65h.95A4.24,4.24,0,0,0,111.44,90V87a4.28,4.28,0,0,0-.57-2.15"/><path class="cls-5" d="M91.38,85.19a4.1,4.1,0,0,1,.1,5.79l-.2.18.7.69a1.57,1.57,0,0,0,.19-.18A5,5,0,0,0,92,84.53Z"/><path class="cls-5" d="M90.27,86.3A2.59,2.59,0,0,1,90.33,90l-.12.11.44.44.12-.11a3.22,3.22,0,0,0-.08-4.53Z"/><path class="cls-5" d="M100.94,91.19a4.09,4.09,0,0,1-.1-5.79,1.54,1.54,0,0,1,.19-.17l-.7-.7-.18.18a5.06,5.06,0,0,0,.12,7.15Z"/><path class="cls-5" d="M102.05,90.08a2.58,2.58,0,0,1-.07-3.66l.12-.11-.44-.44a.57.57,0,0,0-.11.11,3.21,3.21,0,0,0,.07,4.53Z"/></g></g></svg>