<?xml version="1.0" encoding="UTF-8"?>
<svg id="Layer_2" data-name="Layer 2" xmlns="http://www.w3.org/2000/svg" viewBox="0 0 47.85 47.85">
  <defs>
    <style>
      .cls-1 {
        fill: #3c4b54;
      }
    </style>
  </defs>
  <g id="Layer_1-2" data-name="Layer 1">
    <g>
      <path class="cls-1" d="m39.97,30.01c.12-.86.09-1.71-.1-2.56-.13-.57.14-1.18.68-1.52.99-.64,1.8-1.51,2.4-2.59.57-1.03.87-2.21.86-3.39,0-1.2-.29-2.38-.86-3.41h0c-.6-1.08-1.4-1.95-2.4-2.59-.53-.34-.81-.95-.68-1.53.27-1.18.23-2.39-.12-3.6-.66-2.29-2.49-4.12-4.78-4.78-1.21-.34-2.42-.38-3.59-.12-.57.12-1.18-.15-1.52-.68-.64-.99-1.51-1.8-2.59-2.4-2.08-1.15-4.67-1.15-6.75,0-1.07.6-1.94,1.4-2.58,2.39-.34.53-.95.81-1.53.68-1.18-.26-2.39-.23-3.6.12-2.29.66-4.12,2.49-4.77,4.77-.35,1.21-.39,2.42-.12,3.6.13.57-.14,1.18-.68,1.52-.99.64-1.8,1.51-2.4,2.59-.57,1.03-.87,2.21-.86,3.39,0,1.2.29,2.38.86,3.41.6,1.07,1.4,1.94,2.4,2.58.53.35.81.96.68,1.53-.2.86-.22,1.73-.09,2.6l-7.83,7.83h9.97v9.97l9.56-9.56c.32.25.63.52,1,.72,1.04.58,2.21.87,3.38.87s2.34-.29,3.38-.87c.38-.21.7-.48,1.02-.74l9.58,9.58v-9.97h9.97l-7.88-7.88Zm-14.63,5.52c-.87.49-2.01.48-2.88,0-.49-.28-.89-.63-1.17-1.07-1.03-1.6-2.79-2.53-4.6-2.53-.38,0-.77.04-1.16.13-.52.12-1.06.1-1.62-.06-.96-.28-1.76-1.08-2.04-2.04-.16-.55-.18-1.1-.06-1.61.5-2.2-.47-4.51-2.41-5.76-.44-.28-.8-.67-1.07-1.17-.24-.43-.36-.94-.36-1.48,0-.52.12-1.03.36-1.46.28-.49.63-.89,1.07-1.17,1.94-1.25,2.9-3.56,2.41-5.76-.12-.52-.1-1.06.06-1.62.28-.96,1.08-1.76,2.04-2.04.56-.16,1.1-.18,1.62-.06,2.19.5,4.51-.46,5.76-2.4.28-.44.68-.8,1.17-1.07.88-.49,2.01-.48,2.88,0,.5.28.89.64,1.17,1.07,1.25,1.94,3.57,2.9,5.76,2.41.52-.12,1.06-.1,1.61.06.96.28,1.77,1.08,2.04,2.04.16.55.18,1.1.06,1.61-.5,2.2.47,4.51,2.41,5.76.43.28.79.67,1.07,1.17.24.43.36.94.36,1.48,0,.52-.12,1.03-.36,1.46-.28.49-.63.89-1.07,1.17-1.94,1.25-2.9,3.56-2.41,5.76.12.52.1,1.06-.06,1.62-.28.96-1.08,1.76-2.04,2.04-.55.16-1.1.18-1.61.06-2.19-.49-4.51.47-5.76,2.41-.28.43-.68.8-1.17,1.07h0Z"/>
      <path class="cls-1" d="m32.61,17.88c-.08-.62-.09-1.69.48-2.05,0,0,.02-.02.03-.02.47-.15.8-.36.54-.65l-6.95-2.09-11.25,1.56s-1.29.18-1.17,2.19c.06,1.09.4,1.62.7,1.89l-.92.28c-.26.28.07.49.54.65,0,0,.02.02.03.02.57.36.56,1.43.48,2.05-2.07.59-1.33.78-1.33.78l.45.11c-.32.29-.64.83-.58,1.87.11,2,1.17,2.14,1.17,2.14l7.36,2.39,11.11-2.69s.74-.19-1.33-.78c-.08-.62-.09-1.69.48-2.05.01,0,.02-.02.03-.02.47-.15.8-.36.54-.65l-.48-.15c.32-.19.81-.7.88-2.02.05-.91-.18-1.44-.46-1.75l.95-.23s.74-.19-1.32-.78h0Zm-9.29-.03l1.87-.38,6.31-1.3.94-.19c-.3.55-.29,1.3-.24,1.79.01.11.02.21.04.29l-1.03.26-7.97,1.98.08-2.43Zm-8.02,1.95l.94.19,6.06,1.25.53.11,1.59.33.08,2.43-8.19-2.04-.81-.2c.01-.08.02-.18.04-.29.05-.48.06-1.24-.24-1.79h0Zm-.37-3.08c-.01-.53.08-.92.28-1.11.12-.12.27-.15.36-.15.05,0,.09,0,.09,0l4.85,1.58,2.42.79-.08,2.45-6.78-1.9-.36-.1s-.03,0-.04,0c-.03,0-.7-.06-.73-1.56h0Zm7.3,11.21l-7.14-2s-.03,0-.04,0c-.03,0-.7-.06-.73-1.55-.01-.53.08-.92.28-1.11.12-.13.27-.15.36-.15.05,0,.09,0,.09,0,0,0,0,0,0,0l7.26,2.37-.08,2.45Zm9.36-2.52c.01.11.02.21.04.29l-9,2.24.08-2.43,1.92-.4.28.07,1.06-.35,4.91-1.01.94-.19c-.3.55-.29,1.3-.24,1.79h0Zm.5-3.31s-.03,0-.05,0l-.68.19-6.46,1.81-.08-2.45,2.12-.69,5.13-1.67s.27-.06.47.14c.19.2.29.58.28,1.11-.03,1.49-.7,1.55-.73,1.55h0Z"/>
    </g>
  </g>
</svg>