<svg xmlns="http://www.w3.org/2000/svg" viewBox="0 0 47.85 47.85"><defs><style>.cls-1{fill:#3c4b54;}</style></defs><title>Asset 27</title><g id="Layer_2" data-name="Layer 2"><g id="Layer_1-2" data-name="Layer 1"><path class="cls-1" d="M40,30a6.89,6.89,0,0,0-.09-2.56,1.46,1.46,0,0,1,.67-1.52A7.13,7.13,0,0,0,43,23.34,6.86,6.86,0,0,0,43.81,20,6.94,6.94,0,0,0,43,16.54,7.18,7.18,0,0,0,40.55,14a1.47,1.47,0,0,1-.67-1.53,7.34,7.34,0,0,0-.12-3.6A7,7,0,0,0,35,4.06a7.18,7.18,0,0,0-3.59-.12,1.48,1.48,0,0,1-1.53-.68A7.15,7.15,0,0,0,27.28.87a7,7,0,0,0-6.76,0,7.15,7.15,0,0,0-2.58,2.39,1.46,1.46,0,0,1-1.52.68,7.11,7.11,0,0,0-3.6.12A7,7,0,0,0,8.05,8.83a7.11,7.11,0,0,0-.12,3.6A1.46,1.46,0,0,1,7.25,14a7.29,7.29,0,0,0-2.4,2.59,7.15,7.15,0,0,0,0,6.8,7.21,7.21,0,0,0,2.4,2.59,1.46,1.46,0,0,1,.68,1.52,7.11,7.11,0,0,0-.1,2.6L0,37.88H10v10l9.56-9.56a7.33,7.33,0,0,0,1,.73,7,7,0,0,0,6.75,0,6.28,6.28,0,0,0,1-.73l9.58,9.57v-10h10ZM25.34,35.53a3.06,3.06,0,0,1-2.88,0,3.28,3.28,0,0,1-1.17-1.07,5.5,5.5,0,0,0-4.6-2.54,5.16,5.16,0,0,0-1.16.13A3.16,3.16,0,0,1,13.92,32a3,3,0,0,1-2-2,3.2,3.2,0,0,1-.07-1.62,5.47,5.47,0,0,0-2.4-5.76,3.15,3.15,0,0,1-1.07-1.16A2.92,2.92,0,0,1,8,19.93a2.84,2.84,0,0,1,.36-1.45,3.11,3.11,0,0,1,1.07-1.17,5.47,5.47,0,0,0,2.4-5.76,3.32,3.32,0,0,1,.07-1.62,3,3,0,0,1,2-2,3.32,3.32,0,0,1,1.62-.06,5.46,5.46,0,0,0,5.76-2.41,3.17,3.17,0,0,1,1.17-1.06,3,3,0,0,1,2.88,0,3.11,3.11,0,0,1,1.17,1.07,5.47,5.47,0,0,0,5.76,2.4,3.27,3.27,0,0,1,1.61.06,3,3,0,0,1,2,2A3.32,3.32,0,0,1,36,11.55a5.46,5.46,0,0,0,2.4,5.76,3.11,3.11,0,0,1,1.07,1.17A2.89,2.89,0,0,1,39.82,20a3,3,0,0,1-.36,1.46,3.19,3.19,0,0,1-1.07,1.17A5.46,5.46,0,0,0,36,28.33,3.19,3.19,0,0,1,35.92,30a3,3,0,0,1-2,2,3.16,3.16,0,0,1-1.61.06,5.49,5.49,0,0,0-5.76,2.41,3.36,3.36,0,0,1-1.17,1.07Z"/><path class="cls-1" d="M32.61,17.88c-.08-.62-.09-1.69.48-2l0,0c.47-.15.8-.36.54-.65l-6.95-2.09L15.47,14.63s-1.29.19-1.18,2.19A2.58,2.58,0,0,0,15,18.7l-.93.28c-.25.29.08.5.55.65l0,0c.58.36.57,1.43.48,2.05-2.06.59-1.32.78-1.32.78l.45.11a2.19,2.19,0,0,0-.57,1.87c.11,2,1.17,2.14,1.17,2.14L22.21,29,33.32,26.3s.74-.19-1.33-.78c-.08-.62-.09-1.69.48-2.05l0,0c.47-.15.8-.36.54-.65l-.48-.14c.32-.2.8-.7.88-2A2.36,2.36,0,0,0,33,18.89l1-.23s.74-.19-1.33-.78m-9.29,0,1.87-.38,6.31-1.3.94-.19a3.24,3.24,0,0,0-.24,1.78c0,.11,0,.21,0,.29l-1,.26-8,2Zm-8,1.95.95.19,6.06,1.25.53.11,1.59.32.07,2.44-8.19-2-.8-.2c0-.07,0-.17,0-.28a3.18,3.18,0,0,0-.24-1.79m-.36-3.08a1.58,1.58,0,0,1,.27-1.11.5.5,0,0,1,.37-.15h.09L20.51,17l2.41.79-.07,2.46-6.79-1.91-.35-.1h-.05s-.7-.07-.73-1.56m7.3,11.21-7.14-2H15s-.7-.06-.73-1.56a1.55,1.55,0,0,1,.28-1.11A.5.5,0,0,1,15,23.1H15l7.27,2.37Zm9.35-2.52c0,.11,0,.21,0,.28l-9,2.24.08-2.43,1.92-.4.29.07L26,24.82l4.91-1,.94-.19a3.27,3.27,0,0,0-.24,1.79m.5-3.31h0l-.68.2-6.46,1.81-.08-2.46L26.93,21l5.13-1.67a.54.54,0,0,1,.47.14,1.6,1.6,0,0,1,.28,1.11c0,1.5-.71,1.55-.73,1.56"/></g></g></svg>