<svg xmlns="http://www.w3.org/2000/svg" viewBox="0 0 34.72 41.66"><defs><style>.cls-1{fill:#3c4b54;}</style></defs><title>Asset 31</title><g id="Layer_2" data-name="Layer 2"><g id="Layer_1-2" data-name="Layer 1"><polygon class="cls-1" points="33.7 8.68 26.04 8.68 26.04 1.02 33.7 8.68"/><path class="cls-1" d="M22.57,12.15V0H5.21A5.21,5.21,0,0,0,0,5.21V41.66H34.72V12.15ZM13,8.68a3.47,3.47,0,1,1-3.47,3.47A3.47,3.47,0,0,1,13,8.68M6.94,20.83a3.47,3.47,0,0,1,3.47-3.47h5.21a3.47,3.47,0,0,1,3.47,3.47v1.74H15.62V20.83H10.41v1.74H6.94Zm20.83,8.68H6.94V26H27.77Zm0,6.94H6.94V33H27.77Z"/></g></g></svg>