<?xml version="1.0" encoding="UTF-8"?>
<svg id="Layer_2" data-name="Layer 2" xmlns="http://www.w3.org/2000/svg" viewBox="0 0 29.76 29.03">
  <defs>
    <style>
      .cls-1 {
        fill: #3c4b54;
        stroke-width: 0px;
      }
    </style>
  </defs>
  <g id="Layer_1-2" data-name="Layer 1">
    <path class="cls-1" d="M29.76,3.81H6.03l-1.02-2.8L.37,0l-.37,1.65,3.75.83,7.32,20.43h13.96v-1.68h-12.77l-1.55-4.36h15.52l3.54-13.05ZM10.09,15.18l-3.45-9.66h20.91l-2.62,9.66h-14.84Z"/>
    <path class="cls-1" d="M14.07,23.58c-1.5,0-2.72,1.22-2.72,2.72s1.22,2.73,2.72,2.73,2.73-1.23,2.73-2.73-1.23-2.72-2.73-2.72M14.07,27.06c-.4,0-.74-.35-.74-.76s.33-.76.74-.76.75.33.75.76-.33.76-.75.76"/>
    <path class="cls-1" d="M24.01,23.58c-1.5,0-2.72,1.22-2.72,2.72s1.22,2.73,2.72,2.73,2.73-1.23,2.73-2.73-1.23-2.72-2.73-2.72M24.01,27.06c-.4,0-.74-.35-.74-.76s.33-.76.74-.76.75.33.75.76-.33.76-.75.76"/>
  </g>
</svg>