<?xml version="1.0" encoding="UTF-8" standalone="no"?>
<svg
   id="Layer_1"
   data-name="Layer 1"
   viewBox="0 0 1024 1024"
   version="1.1"
   sodipodi:docname="coracao.svg"
   inkscape:version="1.1.2 (0a00cf5339, 2022-02-04)"
   width="1024"
   height="1024"
   xmlns:inkscape="http://www.inkscape.org/namespaces/inkscape"
   xmlns:sodipodi="http://sodipodi.sourceforge.net/DTD/sodipodi-0.dtd"
   xmlns="http://www.w3.org/2000/svg"
   xmlns:svg="http://www.w3.org/2000/svg"
   xmlns:rdf="http://www.w3.org/1999/02/22-rdf-syntax-ns#"
   xmlns:cc="http://creativecommons.org/ns#"
   xmlns:dc="http://purl.org/dc/elements/1.1/">
  <metadata
     id="metadata12">
    <rdf:RDF>
      <cc:Work
         rdf:about="">
        <dc:format>image/svg+xml</dc:format>
        <dc:type
           rdf:resource="http://purl.org/dc/dcmitype/StillImage" />
      </cc:Work>
    </rdf:RDF>
  </metadata>
  <defs
     id="defs10" />
  <sodipodi:namedview
     pagecolor="#ffffff"
     bordercolor="#666666"
     borderopacity="1"
     objecttolerance="10"
     gridtolerance="10"
     guidetolerance="10"
     inkscape:pageopacity="0"
     inkscape:pageshadow="2"
     inkscape:window-width="1920"
     inkscape:window-height="1031"
     id="namedview8"
     showgrid="false"
     inkscape:zoom="0.1475"
     inkscape:cx="-40.677966"
     inkscape:cy="288.13559"
     inkscape:window-x="0"
     inkscape:window-y="25"
     inkscape:window-maximized="1"
     inkscape:current-layer="Layer_1"
     inkscape:pagecheckerboard="0" />
  <g
     id="_5OnaAi"
     data-name="5OnaAi"
     transform="matrix(15.396589,0,0,15.220049,-258.66267,-248.92879)"
     style="fill:#000000;fill-opacity:1;stroke:none">
    <path
       id="path4"
       style="fill:#000000;fill-opacity:1;stroke:none"
       d="m 81.55,45.26 c -0.1,0.1 -0.1,0.3 -0.2,0.4 a 28.62,28.62 0 0 1 -4.4,6.5 c -6.2,7.2 -12.3,14.5 -18.5,21.7 -2.7,3.1 -5.3,6.3 -8,9.4 -0.4,0.5 -0.5,0.5 -0.9,0 -9,-10.6 -18,-21.2 -26.9,-31.7 a 28.73,28.73 0 0 1 -3.9,-5.9 c -0.2,-0.4 -0.2,-0.5 0.3,-0.5 h 4.7 c 0.3,0 0.5,0 0.7,0.3 a 26.32,26.32 0 0 0 3,3.8 c 5.4,6.3 10.8,12.7 16.2,19 2,2.4 4,4.7 6,7.1 0.4,0.4 0.4,0.4 0.8,0 4.5,-5.3 9,-10.5 13.5,-15.8 3.2,-3.8 6.4,-7.6 9.6,-11.3 a 24.76,24.76 0 0 0 1.9,-2.6 0.75,0.75 0 0 1 0.7,-0.4 h 5 c 0.1,-0.1 0.3,-0.2 0.4,0 z m -0.7,-7.2 H 79 c -0.4,0 -0.6,-0.1 -0.5,-0.6 a 15.8,15.8 0 0 0 -2.1,-8.5 13.61,13.61 0 0 0 -8.1,-6.6 11.85,11.85 0 0 0 -8.8,1.4 26.84,26.84 0 0 0 -8.9,8.2 c -0.4,0.6 -0.4,0.6 -0.9,0 a 27.42,27.42 0 0 0 -8.2,-7.7 13.11,13.11 0 0 0 -6.9,-2.2 10.67,10.67 0 0 0 -5.5,1.6 13.34,13.34 0 0 0 -5.8,6.6 16.56,16.56 0 0 0 -1.6,7.3 c 0,0.4 -0.1,0.5 -0.5,0.5 h -3.8 c -0.5,0 -0.6,-0.2 -0.6,-0.6 a 23.87,23.87 0 0 1 3.4,-12.2 17.7,17.7 0 0 1 8.6,-7.6 16.1,16.1 0 0 1 13.4,0.5 22.57,22.57 0 0 1 7.3,5.7 c 0.8,0.9 0.6,0.8 1.2,0 a 21.82,21.82 0 0 1 9.7,-6.7 c 6.1,-1.8 11.6,-0.6 16.2,3.8 a 21.62,21.62 0 0 1 6.5,13 19.4,19.4 0 0 1 0.2,3.4 c 0,0.4 -0.2,0.5 -0.5,0.5 a 6.15,6.15 0 0 1 -1.95,0.2 z" />
  </g>
</svg>
