<?xml version="1.0" encoding="UTF-8" standalone="no"?>
<svg
   xmlns:dc="http://purl.org/dc/elements/1.1/"
   xmlns:cc="http://creativecommons.org/ns#"
   xmlns:rdf="http://www.w3.org/1999/02/22-rdf-syntax-ns#"
   xmlns:svg="http://www.w3.org/2000/svg"
   xmlns="http://www.w3.org/2000/svg"
   xmlns:sodipodi="http://sodipodi.sourceforge.net/DTD/sodipodi-0.dtd"
   xmlns:inkscape="http://www.inkscape.org/namespaces/inkscape"
   id="Layer_1"
   viewBox="0 0 1024 1024"
   version="1.1"
   sodipodi:docname="Leya_Icones_coracao_fullr.svg"
   width="1024"
   height="1024"
   inkscape:version="0.92.5 (2060ec1f9f, 2020-04-08)">
  <metadata
     id="metadata57">
    <rdf:RDF>
      <cc:Work
         rdf:about="">
        <dc:format>image/svg+xml</dc:format>
        <dc:type
           rdf:resource="http://purl.org/dc/dcmitype/StillImage" />
        <dc:title></dc:title>
      </cc:Work>
    </rdf:RDF>
  </metadata>
  <sodipodi:namedview
     pagecolor="#ffffff"
     bordercolor="#666666"
     borderopacity="1"
     objecttolerance="10"
     gridtolerance="10"
     guidetolerance="10"
     inkscape:pageopacity="0"
     inkscape:pageshadow="2"
     inkscape:window-width="1920"
     inkscape:window-height="1031"
     id="namedview55"
     showgrid="false"
     inkscape:zoom="0.295"
     inkscape:cx="894.5507"
     inkscape:cy="137.36468"
     inkscape:window-x="0"
     inkscape:window-y="25"
     inkscape:window-maximized="1"
     inkscape:current-layer="Layer_1" />
  <defs
     id="defs45">
    <style
       id="style43">.cls-1{fill:#e30e19;}</style>
  </defs>
  <path
     style="fill:#000000;stroke-width:15.30902958;stroke:none"
     d="m 756.60147,0.03329105 c -27.40788,-0.4496 -55.87969,3.65637995 -85.23307,12.21767995 -60.05416,18.26409 -107.77742,56.30242 -149.35339,101.962669 -9.23907,12.17605 -6.17744,13.69806 -18.49623,0 C 471.18194,79.207451 435.78344,47.257161 391.12781,27.471051 323.37443,-2.9691189 254.07518,-9.0571489 184.78194,19.861011 127.80751,44.213141 83.157897,82.257421 52.360904,135.5277 18.484215,193.36401 0,254.26218 0,321.23054 c 0,6.08803 1.5338288,9.1261 9.2330766,9.1261 H 987.03755 c 9.23912,0 20.02415,-0.0183 29.26325,-3.06186 4.6195,0 7.6992,-1.52201 7.6992,-7.61003 0,-16.7421 0.012,-34.98241 -3.0678,-51.72449 C 1010.1534,191.85983 977.81649,123.36947 920.84207,70.099191 872.14434,24.058421 816.89883,1.0224411 756.60147,0.03329105 Z M 994.73682,438.23492 c -1.15488,0.19025 -2.29773,0.93345 -3.06765,1.69443 -26.17746,0 -931.60301,-1.51608 -956.240604,-1.51608 -7.699249,0 -7.711273,1.52201 -4.631575,7.61004 15.398496,31.96217 36.962409,62.40829 60.060156,89.80444 137.046613,159.81086 275.639083,321.13185 414.225533,482.46475 6.15939,7.61 7.6752,7.61 13.83458,0 41.57597,-47.18228 81.61204,-95.8925 123.18801,-143.07475 95.47065,-109.58459 189.40145,-220.67931 284.87215,-330.2639 26.17741,-30.44017 50.82106,-62.40234 67.7594,-98.93054 1.53985,-1.52201 1.55791,-4.57195 3.0977,-6.09396 -0.76992,-1.52201 -1.94281,-1.88469 -3.0977,-1.69443 z"
     id="path47"
     inkscape:connector-curvature="0" />
</svg>
