<svg xmlns="http://www.w3.org/2000/svg" viewBox="0 0 47.69 34.8"><defs><style>.cls-1{fill:#3c4b54;}</style></defs><title>Asset 29</title><g id="Layer_2" data-name="Layer 2"><g id="Layer_1-2" data-name="Layer 1"><path class="cls-1" d="M47.69,12.52l-3,17.86a63.68,63.68,0,0,0-20.81-3.14A63.48,63.48,0,0,0,3,30.38L0,12.52l7.2,6.65-1.91,3,1.35,1.2a3.06,3.06,0,0,0,4.62-.61l.24-.37a3.08,3.08,0,0,0,.16-3.1L9.94,16l2.58-4.87,3.72,4.39-.91,3.13a3.07,3.07,0,0,0,5.87,1.82l1.05-3.18L17.13,6.92,23.84,0l6.73,6.92L25.44,17.31l1,3.18a3.08,3.08,0,0,0,5.88-1.82l-.91-3.13,3.71-4.39L37.75,16,36,19.32a3.08,3.08,0,0,0,.16,3.1l.24.37a3.06,3.06,0,0,0,4.62.61l1.35-1.2-1.91-3Z"/><path class="cls-1" d="M44.41,31.91l-.47,2.89a65,65,0,0,0-20.1-2.89A64.93,64.93,0,0,0,3.91,34.75l-.56-2.86a64,64,0,0,1,20.49-3,64.16,64.16,0,0,1,20.57,3.05"/></g></g></svg>