<svg xmlns="http://www.w3.org/2000/svg" viewBox="0 0 28.76 43.42"><defs><style>.cls-1{fill:#3c4b54;}</style></defs><title>gastronomia</title><g id="Layer_2" data-name="Layer 2"><g id="Layer_1-2" data-name="Layer 1"><path class="cls-1" d="M13.65.41l.61,12.53c-.56.8-.79-.24-.79-.24L12.25.52c-.35-.7-.45.07-.45.07l.45,12.29c-.4,1.32-.8.06-.8.06L10.45.31c-.12-.37-.34,0-.34,0l.22,12.39c-.61,1.75-.75-.1-.75-.1L8.65.52c-.22-.49-.51,0-.51,0V15.66a5.31,5.31,0,0,0,.68,2.55A5.39,5.39,0,0,1,11,21.35v21a1,1,0,0,0,1,1.06,1,1,0,0,0,1-1.06V21.11a9.25,9.25,0,0,1,1.44-2.25,11.64,11.64,0,0,0,1.08-2.08l.12-3.16L14.26.52c-.67-1.09-.61-.11-.61-.11"/><path class="cls-1" d="M4,20.72H4V0L1.53,1.87,0,4V16.59s1.83-.31,1.86,4.13h-.2a.52.52,0,0,0-.53.51V42a.51.51,0,0,0,.53.51H4A.53.53,0,0,0,4.59,42V21.23A.54.54,0,0,0,4,20.72"/><path class="cls-1" d="M23.45,0c-2.94,0-5.34,3.49-5.34,7.78,0,3.15,1.27,5.82,3.09,7.08,1.2,1.59,1.69,5.88,1.69,5.88V41.59a.84.84,0,1,0,1.67,0V20.31a20,20,0,0,1,1.51-5.75,8.79,8.79,0,0,0,2.69-6.78C28.76,3.49,26.4,0,23.45,0"/></g></g></svg>