<svg xmlns="http://www.w3.org/2000/svg" viewBox="0 0 38.4 49.06"><defs><style>.cls-1{fill:#3c4b54;}</style></defs><title>Asset 34</title><g id="Layer_2" data-name="Layer 2"><g id="Layer_1-2" data-name="Layer 1"><path class="cls-1" d="M38.4,25.6a4,4,0,0,0-4-4H28.55a4,4,0,0,0-1.62.34,12.05,12.05,0,0,0,4.16-9.11,11.51,11.51,0,0,0-.15-1.87,5.64,5.64,0,1,0-6.33-8.83,12.13,12.13,0,0,0-11.2,0,5.64,5.64,0,1,0-6.33,8.83,12.76,12.76,0,0,0-.14,1.87,12.05,12.05,0,0,0,3.91,8.9,4.09,4.09,0,0,0-1-.13H4a4,4,0,0,0,0,8.05H7.86c0,.27,0,.55,0,.83v4.09A10.27,10.27,0,0,0,7.93,36L3.21,40.73a4.88,4.88,0,0,0,6.89,6.9l3.37-3.37a11.17,11.17,0,0,0,11.08,0l3.37,3.37a4.88,4.88,0,0,0,6.89-6.9L30.09,36a10.27,10.27,0,0,0,.1-1.47V30.46c0-.28,0-.56,0-.83h4.22a4,4,0,0,0,4-4M24.84,9.73a1.09,1.09,0,0,1,.36.06,6.48,6.48,0,0,0,.71.56,1.17,1.17,0,0,1,.17.61,1.24,1.24,0,1,1-1.24-1.23M26.63,3.3a3,3,0,1,1,3.89,4.64L29.28,6.47A11.91,11.91,0,0,0,27.05,3.8ZM15.38,17.69a.71.71,0,0,1,1,0,3.76,3.76,0,0,0,1.94,1V15.8a2.58,2.58,0,0,1-1.25-2.07h0a1.12,1.12,0,0,1,1.06-1.12h1.8A1.12,1.12,0,0,1,21,13.72a2.6,2.6,0,0,1-1.26,2.08v2.92a3.76,3.76,0,0,0,1.94-1,.7.7,0,0,1,1,1,5.14,5.14,0,0,1-7.26,0,.71.71,0,0,1,0-1m-3.27-7.34a6.6,6.6,0,0,0,.72-.56,1,1,0,0,1,.35-.06A1.24,1.24,0,1,1,11.94,11a1.27,1.27,0,0,1,.17-.61M7.5,7.94A3,3,0,0,1,11.4,3.3L11,3.8A12.18,12.18,0,0,0,8.74,6.47ZM29.2,39.15h0"/></g></g></svg>