<?xml version="1.0" encoding="UTF-8" standalone="no"?>
<svg
   id="Layer_1"
   data-name="Layer 1"
   viewBox="0 0 1024 1024"
   version="1.1"
   sodipodi:docname="login.svg"
   inkscape:version="1.1.2 (0a00cf5339, 2022-02-04)"
   width="1024"
   height="1024"
   xmlns:inkscape="http://www.inkscape.org/namespaces/inkscape"
   xmlns:sodipodi="http://sodipodi.sourceforge.net/DTD/sodipodi-0.dtd"
   xmlns="http://www.w3.org/2000/svg"
   xmlns:svg="http://www.w3.org/2000/svg"
   xmlns:rdf="http://www.w3.org/1999/02/22-rdf-syntax-ns#"
   xmlns:cc="http://creativecommons.org/ns#"
   xmlns:dc="http://purl.org/dc/elements/1.1/">
  <metadata
     id="metadata16">
    <rdf:RDF>
      <cc:Work
         rdf:about="">
        <dc:format>image/svg+xml</dc:format>
        <dc:type
           rdf:resource="http://purl.org/dc/dcmitype/StillImage" />
      </cc:Work>
    </rdf:RDF>
  </metadata>
  <sodipodi:namedview
     pagecolor="#ffffff"
     bordercolor="#666666"
     borderopacity="1"
     objecttolerance="10"
     gridtolerance="10"
     guidetolerance="10"
     inkscape:pageopacity="0"
     inkscape:pageshadow="2"
     inkscape:window-width="1920"
     inkscape:window-height="1031"
     id="namedview14"
     showgrid="false"
     inkscape:zoom="0.417193"
     inkscape:cx="227.71235"
     inkscape:cy="281.64423"
     inkscape:window-x="0"
     inkscape:window-y="25"
     inkscape:window-maximized="1"
     inkscape:current-layer="Layer_1"
     inkscape:pagecheckerboard="0" />
  <defs
     id="defs4">
    <style
       id="style2">.cls-1{stroke:#000;stroke-miterlimit:10;stroke-width:1.03px;}</style>
  </defs>
  <path
     style="color:#000000;font-style:normal;font-variant:normal;font-weight:normal;font-stretch:normal;font-size:medium;line-height:normal;font-family:sans-serif;font-variant-ligatures:normal;font-variant-position:normal;font-variant-caps:normal;font-variant-numeric:normal;font-variant-alternates:normal;font-feature-settings:normal;text-indent:0;text-align:start;text-decoration:none;text-decoration-line:none;text-decoration-style:solid;text-decoration-color:#000000;letter-spacing:normal;word-spacing:normal;text-transform:none;writing-mode:lr-tb;direction:ltr;text-orientation:mixed;dominant-baseline:auto;baseline-shift:baseline;text-anchor:start;white-space:normal;shape-padding:0;clip-rule:nonzero;display:inline;overflow:visible;visibility:visible;opacity:1;isolation:auto;mix-blend-mode:normal;color-interpolation:sRGB;color-interpolation-filters:linearRGB;solid-color:#000000;solid-opacity:1;vector-effect:none;fill:#000000;fill-opacity:1;fill-rule:nonzero;stroke:none;stroke-width:13.6335px;stroke-linecap:butt;stroke-linejoin:miter;stroke-miterlimit:10;stroke-dasharray:none;stroke-dashoffset:0;stroke-opacity:1;color-rendering:auto;image-rendering:auto;shape-rendering:auto;text-rendering:auto;enable-background:accumulate"
     d="M 515.99063,0.08368245 C 506.22752,-0.16304384 496.4929,0.13760169 486.77073,0.9636793 408.99337,7.5722208 334.11692,48.364419 287.57144,121.18325 l -0.0205,0.0604 -0.0399,0.0205 c -18.97265,30.65616 -31.47202,64.8885 -36.69987,100.55964 l -1.13999,7.81997 h 75.71973 l 1.05999,-5.51997 C 344.34489,133.22807 425.50915,68.872635 518.09062,72.123426 h 0.0205 0.0604 c 17.77449,0.374465 35.40795,3.375841 52.29982,8.919967 40.63421,13.359374 75.36356,40.411047 98.25965,76.539727 12.66057,20.55481 21.75956,43.09653 26.91991,66.67977 l 1.15999,5.37997 h 35.93988 35.77986 l -1.2409,-7.89997 C 759.36738,171.32038 737.2159,124.2194 703.44995,85.943375 l -0.0399,-0.04004 -0.0399,-0.04004 C 652.47851,29.931768 584.33231,1.8104743 515.99063,0.08368245 Z M 282.93146,325.76252 c -8.05323,0.16947 -16.09221,1.15014 -23.95992,2.91999 l -6.25998,1.38 1.04001,6.33997 c 1.61541,10.09524 3.87778,20.05689 6.77997,29.85989 0.0101,0.0348 0.01,0.0655 0.0205,0.10035 15.92444,62.56108 55.39523,116.58526 110.15961,150.77946 36.87405,24.34472 79.57322,38.41336 123.69955,40.73986 19.47642,1.15632 39.01526,0.24269 58.29979,-2.71999 h 0.0205 0.0399 C 665.74073,537.04009 754.37821,448.44177 772.5697,335.48249 l 1.28,-7.89998 h -76.57972 l -0.44001,6.33998 c -0.1962,2.85652 -0.88893,5.66713 -2.06,8.27997 l -0.25999,0.56003 -0.15995,0.59996 c -10.85047,44.5964 -37.65775,83.66464 -75.35974,109.8396 -39.43091,26.3082 -87.19248,37.10916 -134.09952,30.2599 l -0.0399,-0.0399 h -0.0604 c -35.67326,-4.71396 -69.01237,-20.26689 -95.53966,-44.57983 h -0.0399 v -0.0399 C 358.0165,410.50692 336.908,372.81321 329.1113,331.4225 l -1.04001,-5.55998 h -37.07987 c -2.68522,-0.12441 -5.37555,-0.15646 -8.05996,-0.10035 z M 513.21063,616.64148 A 349.04339,349.04339 0 0 0 376.69112,641.08139 C 280.06555,678.14326 208.59745,745.64603 155.65192,838.30068 A 506.82107,506.82107 0 0 0 96.072123,1018.3201 c 0,3.9709 1.352711,3.9799 3.999987,3.9799 h 93.95966 c 3.97092,0 5.29999,-0.01 5.29999,-3.9799 A 382.53143,382.53143 0 0 1 272.1315,848.90065 C 336.98977,764.18782 420.38683,720.51382 523.63059,723.1611 a 294.64185,294.64185 0 0 1 88.67969,18.49993 333.02737,333.02737 0 0 1 168.0794,150.89946 401.85656,401.85656 0 0 1 43.69984,123.11961 c 0,7.9418 -1.32185,6.6199 6.61998,6.6199 h 44.99984 c 14.56003,1e-4 27.77982,-0.022 42.33985,1.7 10.58909,0 10.6036,0.01 9.27997,-10.5799 A 494.64357,494.64357 0 0 0 825.40952,775.18091 C 747.31486,679.87898 650.69436,625.60329 532.89056,617.66147 a 349.04339,349.04339 0 0 0 -19.67993,-1.01999 z"
     id="path821" />
</svg>
