<svg xmlns="http://www.w3.org/2000/svg" viewBox="0 0 36.57 36.58"><defs><style>.cls-1{fill:#3c4b54;}</style></defs><title>Asset 26</title><g id="Layer_2" data-name="Layer 2"><g id="Layer_1-2" data-name="Layer 1"><path class="cls-1" d="M23.41,20.23A11.85,11.85,0,0,1,22,22a13.74,13.74,0,0,1-1.71,1.47L33.4,36.58l3.17-3.2Z"/><path class="cls-1" d="M22.51,18A12,12,0,1,0,18,22.53c.28-.17.55-.36.83-.55a12.8,12.8,0,0,0,1.75-1.42A11.7,11.7,0,0,0,22,18.8a5.79,5.79,0,0,0,.54-.82m-17.13.75a9.44,9.44,0,1,1,13.34,0,9.42,9.42,0,0,1-13.34,0"/></g></g></svg>