<svg xmlns="http://www.w3.org/2000/svg" viewBox="0 0 14.86 14.86"><defs><style>.cls-1{fill:#4e626e;}</style></defs><title>Asset 1</title><g id="Layer_2" data-name="Layer 2"><g id="Layer_1-2" data-name="Layer 1"><path class="cls-1" d="M14.3,3.28a1.93,1.93,0,0,0,0-2.72,1.93,1.93,0,0,0-2.72,0L1.23,10.92a.05.05,0,0,0,0,0L0,14.46a.3.3,0,0,0,.07.31.3.3,0,0,0,.32.08L3.9,13.67l.05,0ZM10.07,2.4l1.12,1.12L2.56,12.14a2.09,2.09,0,0,0-.48-.75l-.18-.16A2.38,2.38,0,0,0,1.5,11Zm-7.68,10a.09.09,0,0,0,0,.06l.06,0a1.69,1.69,0,0,1,1,.63,2.15,2.15,0,0,1,.26.38l-2.47.84A1.38,1.38,0,0,0,1,13.91a1.21,1.21,0,0,0-.42-.28l.83-2.47a1.9,1.9,0,0,1,1,1.23M3.64,13a2,2,0,0,0-.92-.66l8.63-8.63,1.12,1.11L3.9,13.36A3.26,3.26,0,0,0,3.64,13m9-8.34-2.4-2.39.68-.69L13.31,4Zm.31-4.4a1.7,1.7,0,0,1,1.2,2.89l-.67.67-2.39-2.4.66-.66a1.7,1.7,0,0,1,1.2-.5M.33,14.63a.07.07,0,0,1-.08,0,.09.09,0,0,1,0-.08l.24-.68a1,1,0,0,1,.33.22A1,1,0,0,1,1,14.4Z"/></g></g></svg>