<?xml version="1.0" encoding="UTF-8" standalone="no"?>
<svg
   xmlns:dc="http://purl.org/dc/elements/1.1/"
   xmlns:cc="http://creativecommons.org/ns#"
   xmlns:rdf="http://www.w3.org/1999/02/22-rdf-syntax-ns#"
   xmlns:svg="http://www.w3.org/2000/svg"
   xmlns="http://www.w3.org/2000/svg"
   xmlns:sodipodi="http://sodipodi.sourceforge.net/DTD/sodipodi-0.dtd"
   xmlns:inkscape="http://www.inkscape.org/namespaces/inkscape"
   id="Layer_1"
   viewBox="0 0 1024 1024"
   version="1.1"
   sodipodi:docname="sol.svg"
   width="1024"
   height="1024"
   inkscape:version="0.92.5 (2060ec1f9f, 2020-04-08)">
  <metadata
     id="metadata40">
    <rdf:RDF>
      <cc:Work
         rdf:about="">
        <dc:format>image/svg+xml</dc:format>
        <dc:type
           rdf:resource="http://purl.org/dc/dcmitype/StillImage" />
        <dc:title></dc:title>
      </cc:Work>
    </rdf:RDF>
  </metadata>
  <sodipodi:namedview
     pagecolor="#ffffff"
     bordercolor="#666666"
     borderopacity="1"
     objecttolerance="10"
     gridtolerance="10"
     guidetolerance="10"
     inkscape:pageopacity="0"
     inkscape:pageshadow="2"
     inkscape:window-width="1920"
     inkscape:window-height="1031"
     id="namedview38"
     showgrid="false"
     inkscape:zoom="0.834386"
     inkscape:cx="222.93077"
     inkscape:cy="605.02978"
     inkscape:window-x="0"
     inkscape:window-y="25"
     inkscape:window-maximized="1"
     inkscape:current-layer="Layer_1" />
  <defs
     id="defs4">
    <style
       id="style2">.cls-1{stroke:#000;stroke-miterlimit:10;}</style>
  </defs>
  <path
     style="stroke:none;stroke-width:15.96468163;stroke-miterlimit:10"
     d="m 354.86463,0 -87.54698,35.61251 85.33338,210.05769 c -35.42725,23.6573 -65.19828,54.63056 -89.48002,92.39917 -2.95876,4.6418 -5.78789,9.34219 -8.48034,14.09533 L 38.629179,260.9817 1.90183,348.07954 221.0811,440.60347 c -1.25389,5.52278 -2.71939,10.98164 -3.71015,16.59007 -0.79815,2.55462 0.96034,2.55711 2.55659,2.55711 21.55001,0 44.05657,0.7921 66.56438,1.59041 1.70273,-0.53215 2.80392,-1.66481 3.33603,-3.3679 9.0989,-42.47057 26.64945,-79.99529 54.90393,-111.60872 47.5697,-54.2857 107.60424,-82.5175 181.67249,-78.36624 21.55003,1.75629 42.46404,5.88634 62.41776,14.18886 51.72009,21.55461 90.02127,56.67318 117.47761,104.09332 15.00519,25.06722 25.06313,53.32648 29.21351,82.54493 0.79815,5.74791 0.009,4.95831 4.95724,4.95831 11.81261,0 21.6947,0.0125 32.54953,0.81077 l -0.15644,0.31182 h 30.02414 c 5.00173,0.53216 7.23531,-1.70184 6.70321,-6.70463 -1.04398,-8.24292 -2.45697,-16.34756 -4.08429,-24.38616 L 1024,354.97126 988.42625,267.40564 772.89476,355.03362 c -9.02032,-16.29026 -19.44595,-31.9619 -31.64536,-46.80768 -19.90804,-24.26436 -41.90063,-44.82002 -66.03438,-61.43315 L 762.9808,38.79332 675.90147,2.02698 589.35216,207.21991 c -17.20806,-4.69766 -35.07069,-8.14844 -53.84389,-9.82307 -33.08337,-2.89539 -65.49862,0.20149 -96.7756,9.01228 z M 217.52685,548.65719 c -3.35223,0 -4.16535,0.81332 -3.3672,3.36791 1.4464,9.60118 2.9158,19.09806 4.7702,28.25301 L 0,669.2782 35.604927,756.84382 250.51286,669.46531 c 21.30689,40.34377 51.08576,75.14679 90.38416,104.18686 2.4256,1.76031 4.93625,3.31066 7.38912,4.98949 l -87.20405,206.68978 87.07935,36.73516 85.73867,-203.22832 c 15.45774,4.26189 31.33359,7.34332 47.79543,8.91871 21.55003,1.7563 44.0566,0.96421 66.5644,-1.59041 12.67661,-1.79478 25.0531,-4.52681 37.22618,-7.73372 L 669.01119,1024 l 87.547,-35.58133 -85.0216,-209.24689 c 42.75521,-28.58573 75.67138,-64.35258 99.05156,-106.71279 l 214.19084,90.40338 36.75851,-87.06666 -217.68272,-91.90023 c 1.26937,-5.55231 2.44524,-11.17212 3.4919,-16.87073 0,-1.7563 -0.96033,-2.55711 -2.55658,-2.55711 -22.50781,-0.79832 -45.80255,-0.79209 -68.31036,-1.59041 -1.75593,0 -2.55657,0.96054 -2.55657,2.55711 -0.79815,4.15126 -2.56903,7.51169 -3.36718,11.66293 -15.00521,58.27728 -46.61192,106.66041 -95.77791,140.82846 -49.96414,34.96637 -104.86559,46.62557 -164.08827,35.76843 -44.21746,-7.5042 -82.53487,-29.22721 -114.14158,-60.84064 -38.31117,-38.31929 -61.59966,-84.94363 -69.90041,-138.27134 0,-3.35294 -1.77089,-3.3679 -3.36719,-3.3679 -10.05668,0 -21.6947,0.0192 -32.54953,-0.77964 l 0.15644,-0.15647 c -11.65298,0 -21.70717,-0.0255 -33.36015,-1.62159 z"
     id="path6"
     inkscape:connector-curvature="0" />
</svg>
