<?xml version="1.0" encoding="UTF-8" standalone="no"?>
<!-- Created with Inkscape (http://www.inkscape.org/) -->

<svg
   width="1024"
   height="1024"
   viewBox="0 0 270.93333 270.93334"
   version="1.1"
   id="svg5"
   inkscape:version="1.1.2 (0a00cf5339, 2022-02-04)"
   sodipodi:docname="times.svg"
   xmlns:inkscape="http://www.inkscape.org/namespaces/inkscape"
   xmlns:sodipodi="http://sodipodi.sourceforge.net/DTD/sodipodi-0.dtd"
   xmlns="http://www.w3.org/2000/svg"
   xmlns:svg="http://www.w3.org/2000/svg">
  <sodipodi:namedview
     id="namedview7"
     pagecolor="#ffffff"
     bordercolor="#666666"
     borderopacity="1.0"
     inkscape:pageshadow="2"
     inkscape:pageopacity="0.0"
     inkscape:pagecheckerboard="0"
     inkscape:document-units="mm"
     showgrid="false"
     units="px"
     width="1024px"
     inkscape:zoom="0.10740275"
     inkscape:cx="977.62856"
     inkscape:cy="-302.59932"
     inkscape:window-width="1920"
     inkscape:window-height="1031"
     inkscape:window-x="0"
     inkscape:window-y="25"
     inkscape:window-maximized="1"
     inkscape:current-layer="layer1" />
  <defs
     id="defs2" />
  <g
     inkscape:label="Layer 1"
     inkscape:groupmode="layer"
     id="layer1">
    <path
       id="path2719"
       style="color:#000000;fill:#000000;stroke-width:3.38526;stroke-linecap:round;-inkscape-stroke:none"
       d="M 26.246613,0.00228354 A 26.591956,27.151786 0 0 0 7.545681,8.2061533 26.591956,27.151786 0 0 0 8.0356239,46.602244 L 97.359322,135.46778 8.0356239,224.33155 A 26.591956,27.151786 0 0 0 7.545681,262.72764 26.591956,27.151786 0 0 0 45.1501,263.22966 l 90.31743,-89.85191 90.3157,89.85191 a 26.591956,27.151786 0 0 0 37.60442,-0.50202 26.591956,27.151786 0 0 0 -0.48994,-38.39609 l -89.3237,-88.86377 89.3237,-88.865536 A 26.591956,27.151786 0 0 0 263.38765,8.2061533 26.591956,27.151786 0 0 0 244.68672,0.00228354 26.591956,27.151786 0 0 0 225.78323,7.7058958 L 135.46753,97.557799 45.1501,7.7058958 A 26.591956,27.151786 0 0 0 26.246613,0.00228354 Z" />
  </g>
</svg>
