<?xml version="1.0" encoding="UTF-8" standalone="no"?>
<!-- Created with Inkscape (http://www.inkscape.org/) -->

<svg
   width="1024"
   height="1024"
   viewBox="0 0 270.93333 270.93334"
   version="1.1"
   id="svg5"
   inkscape:version="1.1.2 (0a00cf5339, 2022-02-04)"
   sodipodi:docname="up-arrow.svg"
   xmlns:inkscape="http://www.inkscape.org/namespaces/inkscape"
   xmlns:sodipodi="http://sodipodi.sourceforge.net/DTD/sodipodi-0.dtd"
   xmlns="http://www.w3.org/2000/svg"
   xmlns:svg="http://www.w3.org/2000/svg">
  <sodipodi:namedview
     id="namedview7"
     pagecolor="#ffffff"
     bordercolor="#666666"
     borderopacity="1.0"
     inkscape:pageshadow="2"
     inkscape:pageopacity="0.0"
     inkscape:pagecheckerboard="0"
     inkscape:document-units="mm"
     showgrid="false"
     units="px"
     inkscape:zoom="0.60756173"
     inkscape:cx="383.50013"
     inkscape:cy="562.0828"
     inkscape:window-width="1920"
     inkscape:window-height="1031"
     inkscape:window-x="0"
     inkscape:window-y="25"
     inkscape:window-maximized="1"
     inkscape:current-layer="layer1" />
  <defs
     id="defs2" />
  <g
     inkscape:label="Layer 1"
     inkscape:groupmode="layer"
     id="layer1">
    <path
       id="path1923"
       style="color:#000000;fill:#000000;stroke-width:3.77953;stroke-linecap:round;-inkscape-stroke:none;fill-opacity:1"
       d="M 509.78516 253.45703 A 40.000063 40.000063 0 0 0 505.83203 253.84766 A 39.999999 39.999999 0 0 0 501.99805 254.22656 A 40.000063 40.000063 0 0 0 498.10938 255.40625 A 39.999999 39.999999 0 0 0 494.49609 256.50391 A 40.000063 40.000063 0 0 0 490.54492 258.61328 A 39.999999 39.999999 0 0 0 487.58203 260.19922 A 40.000063 40.000063 0 0 0 484.8125 262.4707 A 39.999999 39.999999 0 0 0 481.52734 265.16406 L 38.185547 708.16016 A 39.999999 39.999999 0 0 0 38.164062 764.73438 A 39.999999 39.999999 0 0 0 94.732422 764.75781 L 509.80273 350.00391 L 924.86914 764.75586 A 40.000063 40.000063 0 0 0 981.4375 764.73438 A 40.000063 40.000063 0 0 0 981.41406 708.1582 L 538.07422 265.16406 A 40.000063 40.000063 0 0 0 534.78906 262.4707 A 39.999999 39.999999 0 0 0 532.01953 260.19922 A 40.000063 40.000063 0 0 0 529.05664 258.61328 A 39.999999 39.999999 0 0 0 525.10547 256.50391 A 40.000063 40.000063 0 0 0 521.49219 255.40625 A 39.999999 39.999999 0 0 0 517.60352 254.22656 A 40.000063 40.000063 0 0 0 513.76953 253.84766 A 39.999999 39.999999 0 0 0 509.81641 253.45703 A 39.999999 39.999999 0 0 0 509.80078 253.45898 A 40.000063 40.000063 0 0 0 509.78516 253.45703 z "
       transform="scale(0.26458333)" />
  </g>
</svg>
