<svg xmlns="http://www.w3.org/2000/svg" viewBox="0 0 37.69 50.77"><defs><style>.cls-1{fill:#3c4b54;}.cls-2{fill:none;stroke:#3c4b54;stroke-miterlimit:10;stroke-width:2px;}</style></defs><title>Asset 33</title><g id="Layer_2" data-name="Layer 2"><g id="Layer_1-2" data-name="Layer 1"><path class="cls-1" d="M27.48,12.15a8.32,8.32,0,1,1-8.32-8.32,8.32,8.32,0,0,1,8.32,8.32"/><path class="cls-2" d="M8.17,12.59C8.17,6.19,13.09,1,19.17,1s11,5.19,11,11.59"/><path class="cls-1" d="M9.36,17.5a4.46,4.46,0,1,1,0-8.92"/><path class="cls-1" d="M28.67,8.58a4.46,4.46,0,1,1,0,8.92"/><path class="cls-1" d="M4.31,31.16V25.82l14.86,5.94L34,25.82v5.34a5.65,5.65,0,0,0-4.75,5.95c0,5.34,4.75,5.34,4.75,5.34v2.38L19.17,50.77,4.31,45.42v-3a5.08,5.08,0,0,0,4.16-5.34,6.09,6.09,0,0,0-4.16-5.95"/><path class="cls-1" d="M6.69,37.11c0,2.29-1.5,4.15-3.35,4.15S0,39.4,0,37.11,1.5,33,3.34,33s3.35,1.86,3.35,4.16"/><path class="cls-1" d="M37.69,37.11c0,2.29-1.5,4.15-3.35,4.15S31,39.4,31,37.11,32.5,33,34.34,33s3.35,1.86,3.35,4.16"/><path class="cls-1" d="M7.28,25.22s3-2.38,5.35-2.38H23.92c3,0,6.54,2.38,6.54,2.38L19.17,30Z"/></g></g></svg>